<svg id="visual" viewBox="0 0 1400 300" width="1400" height="300" xmlns="http://www.w3.org/2000/svg" xmlns:xlink="http://www.w3.org/1999/xlink" version="1.1"><path d="M0 64L13 62.5C26 61 52 58 78 55C104 52 130 49 155.8 44C181.7 39 207.3 32 233.2 30.5C259 29 285 33 311 32.5C337 32 363 27 389 30C415 33 441 44 466.8 52C492.7 60 518.3 65 544.2 64.5C570 64 596 58 622 54C648 50 674 48 700 44.5C726 41 752 36 778 38.5C804 41 830 51 855.8 54.5C881.7 58 907.3 55 933.2 58C959 61 985 70 1011 70.5C1037 71 1063 63 1089 61.5C1115 60 1141 65 1166.8 60.5C1192.7 56 1218.3 42 1244.2 34.5C1270 27 1296 26 1322 34.5C1348 43 1374 61 1387 70L1400 79L1400 0L1387 0C1374 0 1348 0 1322 0C1296 0 1270 0 1244.2 0C1218.3 0 1192.7 0 1166.8 0C1141 0 1115 0 1089 0C1063 0 1037 0 1011 0C985 0 959 0 933.2 0C907.3 0 881.7 0 855.8 0C830 0 804 0 778 0C752 0 726 0 700 0C674 0 648 0 622 0C596 0 570 0 544.2 0C518.3 0 492.7 0 466.8 0C441 0 415 0 389 0C363 0 337 0 311 0C285 0 259 0 233.2 0C207.3 0 181.7 0 155.8 0C130 0 104 0 78 0C52 0 26 0 13 0L0 0Z" fill="#a067ff"></path><path d="M0 106L13 104.5C26 103 52 100 78 95C104 90 130 83 155.8 76.5C181.7 70 207.3 64 233.2 66.5C259 69 285 80 311 79.5C337 79 363 67 389 66C415 65 441 75 466.8 83.5C492.7 92 518.3 99 544.2 104C570 109 596 112 622 108.5C648 105 674 95 700 86C726 77 752 69 778 70C804 71 830 81 855.8 86.5C881.7 92 907.3 93 933.2 95.5C959 98 985 102 1011 99C1037 96 1063 86 1089 87.5C1115 89 1141 102 1166.8 102.5C1192.7 103 1218.3 91 1244.2 85C1270 79 1296 79 1322 82.5C1348 86 1374 93 1387 96.5L1400 100L1400 77L1387 68C1374 59 1348 41 1322 32.5C1296 24 1270 25 1244.2 32.5C1218.3 40 1192.7 54 1166.8 58.5C1141 63 1115 58 1089 59.5C1063 61 1037 69 1011 68.5C985 68 959 59 933.2 56C907.3 53 881.7 56 855.8 52.5C830 49 804 39 778 36.5C752 34 726 39 700 42.5C674 46 648 48 622 52C596 56 570 62 544.2 62.5C518.3 63 492.7 58 466.8 50C441 42 415 31 389 28C363 25 337 30 311 30.5C285 31 259 27 233.2 28.5C207.3 30 181.7 37 155.8 42C130 47 104 50 78 53C52 56 26 59 13 60.5L0 62Z" fill="#8c4aff"></path><path d="M0 154L13 149.5C26 145 52 136 78 140.5C104 145 130 163 155.8 171.5C181.7 180 207.3 179 233.2 179.5C259 180 285 182 311 175.5C337 169 363 154 389 153.5C415 153 441 167 466.8 176C492.7 185 518.3 189 544.2 187C570 185 596 177 622 174.5C648 172 674 175 700 169.5C726 164 752 150 778 149C804 148 830 160 855.8 160C881.7 160 907.3 148 933.2 151C959 154 985 172 1011 169.5C1037 167 1063 144 1089 144C1115 144 1141 167 1166.8 178.5C1192.7 190 1218.3 190 1244.2 184C1270 178 1296 166 1322 166C1348 166 1374 178 1387 184L1400 190L1400 98L1387 94.5C1374 91 1348 84 1322 80.5C1296 77 1270 77 1244.2 83C1218.3 89 1192.7 101 1166.8 100.5C1141 100 1115 87 1089 85.5C1063 84 1037 94 1011 97C985 100 959 96 933.2 93.5C907.3 91 881.7 90 855.8 84.5C830 79 804 69 778 68C752 67 726 75 700 84C674 93 648 103 622 106.5C596 110 570 107 544.2 102C518.3 97 492.7 90 466.8 81.5C441 73 415 63 389 64C363 65 337 77 311 77.5C285 78 259 67 233.2 64.5C207.3 62 181.7 68 155.8 74.5C130 81 104 88 78 93C52 98 26 101 13 102.5L0 104Z" fill="#7425ff"></path><path d="M0 223L13 223C26 223 52 223 78 224C104 225 130 227 155.8 228C181.7 229 207.3 229 233.2 231.5C259 234 285 239 311 237C337 235 363 226 389 224.5C415 223 441 229 466.8 232C492.7 235 518.3 235 544.2 240C570 245 596 255 622 255.5C648 256 674 247 700 243C726 239 752 240 778 238.5C804 237 830 233 855.8 233C881.7 233 907.3 237 933.2 240C959 243 985 245 1011 243.5C1037 242 1063 237 1089 239.5C1115 242 1141 252 1166.8 255C1192.7 258 1218.3 254 1244.2 249.5C1270 245 1296 240 1322 238.5C1348 237 1374 239 1387 240L1400 241L1400 188L1387 182C1374 176 1348 164 1322 164C1296 164 1270 176 1244.2 182C1218.3 188 1192.7 188 1166.8 176.5C1141 165 1115 142 1089 142C1063 142 1037 165 1011 167.5C985 170 959 152 933.2 149C907.3 146 881.7 158 855.8 158C830 158 804 146 778 147C752 148 726 162 700 167.5C674 173 648 170 622 172.5C596 175 570 183 544.2 185C518.3 187 492.7 183 466.8 174C441 165 415 151 389 151.5C363 152 337 167 311 173.5C285 180 259 178 233.2 177.5C207.3 177 181.7 178 155.8 169.5C130 161 104 143 78 138.5C52 134 26 143 13 147.5L0 152Z" fill="#6101f1"></path><path d="M0 259L13 258.5C26 258 52 257 78 259C104 261 130 266 155.8 266.5C181.7 267 207.3 263 233.2 264C259 265 285 271 311 270.5C337 270 363 263 389 260C415 257 441 258 466.8 259C492.7 260 518.3 261 544.2 265.5C570 270 596 278 622 280.5C648 283 674 280 700 279.5C726 279 752 281 778 278C804 275 830 267 855.8 264.5C881.7 262 907.3 265 933.2 268.5C959 272 985 276 1011 277C1037 278 1063 276 1089 277C1115 278 1141 282 1166.8 284C1192.7 286 1218.3 286 1244.2 282.5C1270 279 1296 272 1322 270.5C1348 269 1374 273 1387 275L1400 277L1400 239L1387 238C1374 237 1348 235 1322 236.5C1296 238 1270 243 1244.2 247.5C1218.3 252 1192.7 256 1166.8 253C1141 250 1115 240 1089 237.5C1063 235 1037 240 1011 241.5C985 243 959 241 933.2 238C907.3 235 881.7 231 855.8 231C830 231 804 235 778 236.5C752 238 726 237 700 241C674 245 648 254 622 253.5C596 253 570 243 544.2 238C518.3 233 492.7 233 466.8 230C441 227 415 221 389 222.5C363 224 337 233 311 235C285 237 259 232 233.2 229.5C207.3 227 181.7 227 155.8 226C130 225 104 223 78 222C52 221 26 221 13 221L0 221Z" fill="#5602d5"></path><path d="M0 301L13 301C26 301 52 301 78 301C104 301 130 301 155.8 301C181.7 301 207.3 301 233.2 301C259 301 285 301 311 301C337 301 363 301 389 301C415 301 441 301 466.8 301C492.7 301 518.3 301 544.2 301C570 301 596 301 622 301C648 301 674 301 700 301C726 301 752 301 778 301C804 301 830 301 855.8 301C881.7 301 907.3 301 933.2 301C959 301 985 301 1011 301C1037 301 1063 301 1089 301C1115 301 1141 301 1166.8 301C1192.7 301 1218.3 301 1244.2 301C1270 301 1296 301 1322 301C1348 301 1374 301 1387 301L1400 301L1400 275L1387 273C1374 271 1348 267 1322 268.5C1296 270 1270 277 1244.2 280.5C1218.3 284 1192.7 284 1166.8 282C1141 280 1115 276 1089 275C1063 274 1037 276 1011 275C985 274 959 270 933.2 266.5C907.3 263 881.7 260 855.8 262.5C830 265 804 273 778 276C752 279 726 277 700 277.5C674 278 648 281 622 278.5C596 276 570 268 544.2 263.5C518.3 259 492.7 258 466.8 257C441 256 415 255 389 258C363 261 337 268 311 268.5C285 269 259 263 233.2 262C207.3 261 181.7 265 155.8 264.5C130 264 104 259 78 257C52 255 26 256 13 256.5L0 257Z" fill="#4b03ba"></path></svg>