<svg width="24" height="24" viewBox="0 0 24 24" fill="none" xmlns="http://www.w3.org/2000/svg">
<path d="M13 9.00001C12.7348 9.00001 12.4804 8.89466 12.2929 8.70712C12.1054 8.51958 12 8.26523 12 8.00001V5.06101C12.0442 4.83454 12.0087 4.59976 11.8996 4.39647C11.7904 4.19318 11.6143 4.03389 11.4011 3.9456C11.1879 3.85732 10.9508 3.84547 10.7299 3.91207C10.509 3.97867 10.3179 4.11961 10.189 4.31101L3.353 11.147C3.24091 11.2591 3.152 11.3922 3.09134 11.5386C3.03068 11.685 2.99946 11.842 2.99946 12.0005C2.99946 12.159 3.03068 12.316 3.09134 12.4624C3.152 12.6089 3.24091 12.7419 3.353 12.854L10.189 19.689C10.3179 19.8804 10.509 20.0214 10.7299 20.088C10.9508 20.1546 11.1879 20.1427 11.4011 20.0544C11.6143 19.9661 11.7904 19.8068 11.8996 19.6036C12.0087 19.4003 12.0442 19.1655 12 18.939V16C12 15.7348 12.1054 15.4804 12.2929 15.2929C12.4804 15.1054 12.7348 15 13 15H15C15.2652 15 15.5196 14.8947 15.7071 14.7071C15.8946 14.5196 16 14.2652 16 14V10C16 9.7348 15.8946 9.48044 15.7071 9.29291C15.5196 9.10537 15.2652 9.00001 15 9.00001H13Z" stroke="#8F8F8F" stroke-width="2" stroke-linecap="round" stroke-linejoin="round"/>
<path d="M20 9V15" stroke="#8F8F8F" stroke-width="2" stroke-linecap="round" stroke-linejoin="round"/>
</svg>
