<svg width="25" height="25" viewBox="0 0 25 25" fill="none" xmlns="http://www.w3.org/2000/svg">
<rect x="0.5" y="0.5" width="24" height="24" rx="12" stroke="#870505"/>
<path d="M11.25 11.875V15.625" stroke="#870505" stroke-width="1.5" stroke-linecap="round" stroke-linejoin="round"/>
<path d="M13.75 11.875V15.625" stroke="#870505" stroke-width="1.5" stroke-linecap="round" stroke-linejoin="round"/>
<path d="M16.875 8.75V17.5C16.875 17.8315 16.7433 18.1495 16.5089 18.3839C16.2745 18.6183 15.9565 18.75 15.625 18.75H9.375C9.04348 18.75 8.72554 18.6183 8.49112 18.3839C8.2567 18.1495 8.125 17.8315 8.125 17.5V8.75" stroke="#870505" stroke-width="1.5" stroke-linecap="round" stroke-linejoin="round"/>
<path d="M6.875 8.75H18.125" stroke="#870505" stroke-width="1.5" stroke-linecap="round" stroke-linejoin="round"/>
<path d="M10 8.75V7.5C10 7.16848 10.1317 6.85054 10.3661 6.61612C10.6005 6.3817 10.9185 6.25 11.25 6.25H13.75C14.0815 6.25 14.3995 6.3817 14.6339 6.61612C14.8683 6.85054 15 7.16848 15 7.5V8.75" stroke="#870505" stroke-width="1.5" stroke-linecap="round" stroke-linejoin="round"/>
</svg>
