<svg width="31" height="31" viewBox="0 0 31 31" fill="none" xmlns="http://www.w3.org/2000/svg">
<rect x="0.5" y="0.5" width="30" height="30" rx="4.5" stroke="#870505"/>
<path d="M14.0833 14.7917V19.0417" stroke="#870505" stroke-width="1.5" stroke-linecap="round" stroke-linejoin="round"/>
<path d="M16.9167 14.7917V19.0417" stroke="#870505" stroke-width="1.5" stroke-linecap="round" stroke-linejoin="round"/>
<path d="M20.4584 11.25V21.1667C20.4584 21.5424 20.3092 21.9027 20.0435 22.1684C19.7778 22.4341 19.4175 22.5833 19.0417 22.5833H11.9584C11.5827 22.5833 11.2224 22.4341 10.9567 22.1684C10.691 21.9027 10.5417 21.5424 10.5417 21.1667V11.25" stroke="#870505" stroke-width="1.5" stroke-linecap="round" stroke-linejoin="round"/>
<path d="M9.125 11.25H21.875" stroke="#870505" stroke-width="1.5" stroke-linecap="round" stroke-linejoin="round"/>
<path d="M12.6667 11.25V9.83335C12.6667 9.45763 12.816 9.0973 13.0817 8.83162C13.3474 8.56594 13.7077 8.41669 14.0834 8.41669H16.9167C17.2925 8.41669 17.6528 8.56594 17.9185 8.83162C18.1842 9.0973 18.3334 9.45763 18.3334 9.83335V11.25" stroke="#870505" stroke-width="1.5" stroke-linecap="round" stroke-linejoin="round"/>
</svg>
